<?xml version="1.0" encoding="UTF-8" standalone="no"?>
<!DOCTYPE svg PUBLIC "-//W3C//DTD SVG 1.1//EN" "http://www.w3.org/Graphics/SVG/1.1/DTD/svg11.dtd">
<svg width="100%" height="100%" viewBox="0 0 1000 815" version="1.1" xmlns="http://www.w3.org/2000/svg" xmlns:xlink="http://www.w3.org/1999/xlink" xml:space="preserve" xmlns:serif="http://www.serif.com/" style="fill-rule:evenodd;clip-rule:evenodd;stroke-linejoin:round;stroke-miterlimit:2;">
    <g transform="matrix(1,0,0,1,-3.41061e-13,-92.5)">
        <g transform="matrix(1.34751,0,0,1.50628,-153.725,-253.139)">
            <g transform="matrix(1,0,0,1,-36.5059,0)">
                <path d="M622.555,486.722C622.555,494.055 615.91,500 607.713,500C565.289,500 443.837,500 401.413,500C393.216,500 386.571,505.945 386.571,513.278C386.571,541.381 386.571,606.598 386.571,634.701C386.571,642.034 393.216,647.979 401.413,647.979C443.837,647.979 565.289,647.979 607.713,647.979C615.91,647.979 622.555,653.924 622.555,661.257C622.555,684.823 622.555,733.691 622.555,757.257C622.555,760.778 620.992,764.156 618.208,766.646C615.425,769.136 611.65,770.535 607.713,770.535L165.429,770.535C161.493,770.535 157.717,769.136 154.934,766.646C152.15,764.156 150.587,760.778 150.587,757.257C150.587,682.743 150.587,317.257 150.587,242.743C150.587,239.222 152.15,235.844 154.934,233.354C157.717,230.864 161.493,229.465 165.429,229.465C236.003,229.465 537.139,229.465 607.713,229.465C611.65,229.465 615.425,230.864 618.208,233.354C620.992,235.844 622.555,239.222 622.555,242.743C622.555,288.71 622.555,440.756 622.555,486.722Z"/>
            </g>
            <g transform="matrix(1,0,0,1,-41.9817,1.13687e-13)">
                <path d="M683.332,518.357C691.53,518.357 698.175,512.413 698.175,505.079L698.175,242.743C698.175,235.41 704.82,229.465 713.017,229.465L883.332,229.465C891.53,229.465 898.175,235.41 898.175,242.743L898.175,757.257C898.175,764.59 891.53,770.535 883.332,770.535L713.017,770.535C704.82,770.535 698.175,764.59 698.175,757.257L698.175,641.635C698.175,634.302 691.53,628.357 683.332,628.357L514.842,628.357C506.645,628.357 500,622.413 500,615.079L500,531.635C500,524.302 506.645,518.357 514.842,518.357L683.332,518.357Z"/>
            </g>
        </g>
    </g>
</svg>
