<?xml version="1.0" encoding="UTF-8" standalone="no"?>
<!DOCTYPE svg PUBLIC "-//W3C//DTD SVG 1.1//EN" "http://www.w3.org/Graphics/SVG/1.1/DTD/svg11.dtd">
<svg width="100%" height="100%" viewBox="0 0 948 666" version="1.1" xmlns="http://www.w3.org/2000/svg" xmlns:xlink="http://www.w3.org/1999/xlink" xml:space="preserve" xmlns:serif="http://www.serif.com/" style="fill-rule:evenodd;clip-rule:evenodd;stroke-linejoin:round;stroke-miterlimit:2;">
    <g transform="matrix(1,0,0,1,-26.128,-167.253)">
        <g transform="matrix(0.947744,0,0,1.05012,26.128,-5.70839)">
            <g transform="matrix(0.927965,-0.359111,0.359111,0.927965,-254.011,111.723)">
                <path d="M425.587,267.076C394.339,262.126 362.506,262.126 331.258,267.076L323.73,354.536C315.348,356.716 307.104,359.394 299.043,362.557L241.545,296.225C213.355,310.589 187.602,329.299 165.23,351.671L210.548,426.853C205.048,433.542 199.953,440.555 195.291,447.853L109.785,427.985C95.421,456.175 85.584,486.45 80.635,517.698L161.489,551.884C160.971,560.529 160.971,569.197 161.489,577.842L80.635,612.028C85.584,643.276 95.421,673.551 109.785,701.741L195.291,681.873C199.953,689.171 205.048,696.184 210.548,702.874L165.23,778.055C187.602,800.427 213.355,819.138 241.545,833.501L299.043,767.169C307.104,770.332 315.348,773.011 323.73,775.19L331.258,862.65C362.506,867.6 394.339,867.6 425.587,862.65L433.115,775.19C441.497,773.011 449.74,770.332 457.802,767.169L515.3,833.501C543.49,819.138 569.243,800.427 591.615,778.055L546.297,702.874C551.797,696.184 556.891,689.171 561.554,681.873L647.06,701.741C661.424,673.551 671.261,643.276 676.21,612.028L595.356,577.842C595.873,569.197 595.873,560.529 595.356,551.884L676.21,517.698C671.261,486.45 661.424,456.175 647.06,427.985L561.554,447.853C556.891,440.555 551.797,433.542 546.297,426.853L591.615,351.671C569.243,329.299 543.49,310.589 515.3,296.225L457.802,362.557C449.74,359.394 441.497,356.716 433.115,354.536L425.587,267.076ZM378.422,506.61C410.573,506.61 436.675,532.712 436.675,564.863C436.675,597.014 410.573,623.116 378.422,623.116C346.272,623.116 320.169,597.014 320.169,564.863C320.169,532.712 346.272,506.61 378.422,506.61Z"/>
            </g>
            <g transform="matrix(0.963753,-0.266796,0.266796,0.963753,-68.4072,161.88)">
                <path d="M717.478,201.553C696.477,195.926 674.365,195.926 653.364,201.553L656.525,228.983C642.951,233.236 630.484,240.434 620.014,250.062L597.839,233.61C582.466,248.984 571.41,268.134 565.782,289.135L591.118,300.112C588.015,313.994 588.015,328.389 591.118,342.271L565.782,353.249C571.41,374.25 582.466,393.4 597.839,408.773L620.014,392.321C630.484,401.949 642.951,409.147 656.525,413.401L653.364,440.83C674.365,446.458 696.477,446.458 717.478,440.83L714.318,413.401C727.891,409.147 740.358,401.949 750.828,392.321L773.003,408.773C788.377,393.4 799.433,374.25 805.06,353.249L779.725,342.271C782.828,328.389 782.828,313.994 779.725,300.112L805.06,289.135C799.433,268.134 788.377,248.984 773.003,233.61L750.828,250.062C740.358,240.434 727.891,233.236 714.318,228.983L717.478,201.553ZM685.421,291.647C701.727,291.647 714.966,304.886 714.966,321.192C714.966,337.498 701.727,350.736 685.421,350.736C669.115,350.736 655.877,337.498 655.877,321.192C655.877,304.886 669.115,291.647 685.421,291.647Z"/>
            </g>
            <g transform="matrix(1.18849,0,0,1.18849,-107.09,-233.098)">
                <path d="M772.406,501.408C757.413,499.531 742.243,499.531 727.25,501.408L717.827,543.621C702.612,547.148 688.084,553.165 674.832,561.43L638.32,538.244C626.391,547.518 615.664,558.245 606.39,570.174L629.576,606.686C621.311,619.938 615.294,634.466 611.767,649.681L569.554,659.104C567.677,674.097 567.677,689.267 569.554,704.26L611.767,713.683C615.294,728.898 621.311,743.425 629.576,756.678L606.39,793.189C615.664,805.119 626.391,815.845 638.32,825.12L674.832,801.934C688.084,810.199 702.612,816.216 717.827,819.743L727.25,861.955C742.243,863.833 757.413,863.833 772.406,861.955L781.829,819.743C797.044,816.216 811.571,810.199 824.824,801.934L861.335,825.12C873.265,815.845 883.991,805.119 893.266,793.189L870.08,756.678C878.345,743.425 884.362,728.898 887.889,713.683L930.101,704.26C931.979,689.267 931.979,674.097 930.101,659.104L887.889,649.681C884.362,634.466 878.345,619.938 870.08,606.686L893.266,570.174C883.991,558.245 873.265,547.518 861.335,538.244L824.824,561.43C811.571,553.165 797.044,547.148 781.829,543.621L772.406,501.408ZM749.828,655.337C764.368,655.337 776.172,667.142 776.172,681.682C776.172,696.222 764.368,708.026 749.828,708.026C735.288,708.026 723.483,696.222 723.483,681.682C723.483,667.142 735.288,655.337 749.828,655.337Z"/>
            </g>
        </g>
    </g>
</svg>
