<?xml version="1.0" encoding="UTF-8" standalone="no"?>
<!DOCTYPE svg PUBLIC "-//W3C//DTD SVG 1.1//EN" "http://www.w3.org/Graphics/SVG/1.1/DTD/svg11.dtd">
<svg width="100%" height="100%" viewBox="0 0 1000 815" version="1.1" xmlns="http://www.w3.org/2000/svg" xmlns:xlink="http://www.w3.org/1999/xlink" xml:space="preserve" xmlns:serif="http://www.serif.com/" style="fill-rule:evenodd;clip-rule:evenodd;stroke-linejoin:round;stroke-miterlimit:2;">
    <g transform="matrix(1,0,0,1,0,-92.5)">
        <g transform="matrix(1,0,0,1,0,-20)">
            <g transform="matrix(1.22758,0,0,1.20787,676.7,-106.398)">
                <rect x="0" y="181.226" width="263.364" height="165.58"/>
            </g>
            <g transform="matrix(1.22758,0,0,1.20787,338.35,-106.398)">
                <rect x="0" y="181.226" width="263.364" height="165.58"/>
            </g>
            <g transform="matrix(1.22758,0,0,1.20787,0,-106.398)">
                <rect x="0" y="181.226" width="263.364" height="165.58"/>
            </g>
            <g transform="matrix(8.27836e-17,1.35196,-2.66319,1.63074e-16,2218.75,-85.4876)">
                <path d="M269.883,661.799L269.883,628.944L627.229,628.944L627.229,583.416L749.274,645.372L627.229,707.327L627.229,661.799L269.883,661.799Z"/>
            </g>
            <g transform="matrix(4.78571,0,0,4.66059,-1727.23,-1702.51)">
                <rect x="456.25" y="451.436" width="87.5" height="18.774"/>
            </g>
            <g transform="matrix(1.77136e-16,2.89286,-4.66059,2.85379e-16,2986.06,-1084.04)">
                <rect x="456.25" y="451.436" width="87.5" height="18.774"/>
            </g>
            <g transform="matrix(1,0,0,1,-3.41061e-13,18.8559)">
                <path d="M205.4,419.47L521.875,602.187L478.125,677.964L117.9,470.096L117.9,216.971L205.4,216.971L205.4,419.47Z"/>
            </g>
        </g>
    </g>
</svg>
