<?xml version="1.0" encoding="UTF-8" standalone="no"?>
<!DOCTYPE svg PUBLIC "-//W3C//DTD SVG 1.1//EN" "http://www.w3.org/Graphics/SVG/1.1/DTD/svg11.dtd">
<svg width="100%" height="100%" viewBox="0 0 10627 2651" version="1.1" xmlns="http://www.w3.org/2000/svg" xmlns:xlink="http://www.w3.org/1999/xlink" xml:space="preserve" xmlns:serif="http://www.serif.com/" style="fill-rule:evenodd;clip-rule:evenodd;stroke-linejoin:round;stroke-miterlimit:2;">
    <g transform="matrix(1,0,0,1,-899.295,-119.108)">
        <g transform="matrix(6.63277,0,0,1.75886,807.723,0)">
            <g transform="matrix(0.193723,0,0,0.731006,0.655676,65.0319)">
                <g transform="matrix(0.8122,0,0,0.8122,0,0)">
                    <path d="M532.483,761.449C520.135,781.412 495.122,789.478 473.428,780.492C393.837,747.562 213.432,672.836 128.889,637.817C116.782,632.803 107.26,623.051 102.539,610.833C97.818,598.616 98.311,584.999 103.903,573.154C268.017,227.249 617.443,4.526 1003.28,4.526C1553.06,4.526 1998.75,450.215 1998.75,1000C1998.75,1000 1999.68,1682.83 1999.93,1871.78C1999.95,1884.49 1994.91,1896.69 1985.92,1905.68C1976.94,1914.67 1964.74,1919.73 1952.02,1919.73C1865.1,1919.73 1682.54,1919.73 1595.7,1919.73C1569.27,1919.73 1547.83,1898.33 1547.79,1871.91C1547.54,1683.15 1546.61,1000 1546.61,1000C1521.91,719.936 1286.44,500 1000,500C802.438,500 629.12,604.628 532.483,761.449Z"/>
                </g>
                <g transform="matrix(0.8122,0,0,0.8122,-1578.3,1.84673e-13)">
                    <path d="M2617.66,1912.22C2607.54,1917.25 2595.97,1918.53 2584.99,1915.84C2549.97,1907.06 2476.22,1882.74 2487.37,1835.33C2505.52,1758.14 2546.03,1584.3 2504.04,1433.42C2496.65,1406.86 2526.47,1383.54 2554.04,1383.54L2624.1,1383.54C2676.05,1383.54 2725.96,1403.76 2763.28,1439.91C2787.33,1463.29 2820.14,1477.68 2856.3,1477.68C2930.03,1477.68 2989.89,1417.82 2989.89,1344.09L2989.89,1175.91C2989.89,1102.18 2930.03,1042.32 2856.3,1042.32C2782.57,1042.32 2722.71,1102.18 2722.71,1175.91L2722.71,1259.63C2722.71,1284.48 2702.56,1304.63 2677.71,1304.63L2549.47,1304.63C2537.52,1304.63 2526.06,1299.87 2517.62,1291.41C2509.17,1282.94 2504.45,1271.47 2504.47,1259.51C2504.68,1176.41 2505.11,1047.57 2505.11,1047.57C2505.11,800.382 2705.49,600 2952.67,600C3199.86,600 3400.24,800.382 3400.24,1047.57L3400.24,1838.34C3400.24,1883.29 3363.78,1919.73 3318.81,1919.73L3318.8,1919.73C3306.68,1919.73 3294.72,1916.94 3283.84,1911.59C3239,1890.2 3107.07,1834.55 2951.48,1834.55C2794.19,1834.55 2661.08,1891.42 2617.66,1912.22Z"/>
                </g>
            </g>
        </g>
        <g transform="matrix(6.63277,0,0,1.75886,807.723,0)">
            <g transform="matrix(1.21632,0,0,1.60828,-87.096,-552.215)">
                <g transform="matrix(0.123935,0,0,0.562854,-70.5862,-654.674)">
                    <rect x="3739.27" y="1992.52" width="263.738" height="1121.91"/>
                </g>
                <g transform="matrix(1,0,0,1,-20.3631,-7.19976)">
                    <g transform="matrix(0.123953,0,0,0.362052,577.34,-22.1203)">
                        <rect x="3739.27" y="1992.52" width="263.738" height="1121.91"/>
                    </g>
                    <g transform="matrix(0.123953,-8.32667e-17,-6.62776e-17,0.353513,120.765,5.82848)">
                        <path d="M8118.99,1974.18C8079.59,1965.81 8039.42,1961.58 7999.14,1961.58C7680.79,1961.58 7422.72,2219.66 7422.72,2538.01L7682.11,2538.01C7682.11,2362.92 7824.05,2220.97 7999.14,2220.97C8021.3,2220.97 8043.39,2223.3 8065.06,2227.9L8118.99,1974.18Z"/>
                    </g>
                </g>
                <g transform="matrix(1,0,0,1,-35.6283,-0.00570036)">
                    <g transform="matrix(0.0859072,0,0,0.236256,984.745,391.998)">
                        <rect x="3118.09" y="1325.19" width="380.54" height="1765.19"/>
                    </g>
                    <g transform="matrix(0.123953,-8.32667e-17,-6.62776e-17,0.353513,222.335,221.336)">
                        <path d="M7538.79,2884.91C7647.7,3029.44 7818.17,3114.43 7999.14,3114.43C8317.49,3114.43 8575.57,2856.36 8575.57,2538.01L8310.41,2538.01C8310.41,2709.92 8171.05,2849.28 7999.14,2849.28C7901.42,2849.28 7809.36,2803.38 7750.55,2725.34L7538.79,2884.91Z"/>
                    </g>
                    <g transform="matrix(0.123953,-8.32667e-17,-6.62776e-17,0.353513,222.335,-1.36558)">
                        <path d="M7999.14,1961.58C8317.28,1961.58 8575.57,2219.87 8575.57,2538.01C8575.57,2856.15 8317.28,3114.43 7999.14,3114.43C7681.01,3114.43 7422.72,2856.15 7422.72,2538.01C7422.72,2219.87 7681.01,1961.58 7999.14,1961.58ZM7999.14,2226.74C8170.94,2226.74 8310.41,2366.21 8310.41,2538.01C8310.41,2709.8 8170.94,2849.28 7999.14,2849.28C7827.35,2849.28 7687.87,2709.8 7687.87,2538.01C7687.87,2366.21 7827.35,2226.74 7999.14,2226.74Z"/>
                    </g>
                </g>
                <g>
                    <g transform="matrix(0.123953,0,0,0.353513,0,0)">
                        <path d="M3739.27,2404.61C3739.27,2177.02 3923.77,1992.52 4151.36,1992.52C4259.58,1992.52 4358.06,2034.24 4431.58,2102.46C4505.11,2034.23 4603.58,1992.52 4711.8,1992.52C4938.1,1992.52 5121.79,2174.92 5123.88,2400.71L5123.89,2400.71L5123.89,3110.66L4860.16,3110.66L4860.16,2404.61C4860.16,2322.68 4793.74,2256.26 4711.8,2256.26C4629.87,2256.26 4563.45,2322.68 4563.45,2404.61L4563.45,3114.56L4299.71,3114.56L4299.71,2404.61C4299.71,2322.68 4233.29,2256.26 4151.36,2256.26C4069.43,2256.26 4003.01,2322.68 4003.01,2404.61L4003.01,3114.56L3739.27,3114.56L3739.27,2404.61L3739.27,2404.61Z"/>
                    </g>
                    <g transform="matrix(0.123953,0,0,0.353513,0,0)">
                        <rect x="3739.27" y="1992.52" width="263.738" height="1121.91"/>
                    </g>
                </g>
                <g transform="matrix(1,0,0,1,205.096,0)">
                    <g transform="matrix(0.123953,0,0,0.353513,0,0)">
                        <path d="M3739.27,2404.61C3739.27,2177.02 3923.77,1992.52 4151.36,1992.52C4259.58,1992.52 4358.06,2034.24 4431.58,2102.46C4505.11,2034.23 4603.58,1992.52 4711.8,1992.52C4938.1,1992.52 5121.79,2174.92 5123.88,2400.71L5123.89,2400.71L5123.89,3110.66L4860.16,3110.66L4860.16,2404.61C4860.16,2322.68 4793.74,2256.26 4711.8,2256.26C4629.87,2256.26 4563.45,2322.68 4563.45,2404.61L4563.45,3114.56L4299.71,3114.56L4299.71,2404.61C4299.71,2322.68 4233.29,2256.26 4151.36,2256.26C4069.43,2256.26 4003.01,2322.68 4003.01,2404.61L4003.01,3114.56L3739.27,3114.56L3739.27,2404.61L3739.27,2404.61Z"/>
                    </g>
                    <g transform="matrix(0.123953,0,0,0.353513,0,0)">
                        <rect x="3739.27" y="1992.52" width="263.738" height="1121.91"/>
                    </g>
                </g>
                <g transform="matrix(1,0,0,1,-82.1957,2.69129)">
                    <g transform="matrix(0.105381,0,0,0.333937,149.602,38.326)">
                        <path d="M12647.2,2565.95C12647.2,2230.04 12374.9,1957.72 12039,1957.72C11703.3,1957.72 11430.7,2230.26 11430.7,2565.95C11430.7,2901.65 11703.3,3174.19 12039,3174.19C12218.7,3174.19 12389.3,3094.64 12504.9,2956.92L12290.6,2777.07C12228.2,2851.45 12136,2894.4 12039,2894.4C11857.7,2894.4 11710.5,2747.23 11710.5,2565.95C11710.5,2384.68 11857.7,2237.51 12039,2237.51C12220.4,2237.51 12367.4,2384.56 12367.4,2565.95L12647.2,2565.95Z"/>
                    </g>
                    <g transform="matrix(0.123953,0,0,0.405024,0,-129.777)">
                        <path d="M10980.3,2632.64L10980.3,2431.9L11894.3,2431.9L11959.2,2530.63L11959.2,2632.64L10980.3,2632.64Z"/>
                    </g>
                </g>
                <g transform="matrix(1,0,0,1,-491.652,-0.00570036)">
                    <g transform="matrix(0.105381,0,0,0.333937,149.602,38.326)">
                        <path d="M12647.2,2565.95C12647.2,2230.04 12374.9,1957.72 12039,1957.72C11703.3,1957.72 11430.7,2230.26 11430.7,2565.95C11430.7,2901.65 11703.3,3174.19 12039,3174.19C12218.7,3174.19 12389.3,3094.64 12504.9,2956.92L12290.6,2777.07C12228.2,2851.45 12136,2894.4 12039,2894.4C11857.7,2894.4 11710.5,2747.23 11710.5,2565.95C11710.5,2384.68 11857.7,2237.51 12039,2237.51C12220.4,2237.51 12367.4,2384.56 12367.4,2565.95L12647.2,2565.95Z"/>
                    </g>
                    <g transform="matrix(0.123953,0,0,0.405024,0,-129.777)">
                        <path d="M10980.3,2632.64L10980.3,2431.9L11894.3,2431.9L11959.2,2530.63L11959.2,2632.64L10980.3,2632.64Z"/>
                    </g>
                </g>
            </g>
        </g>
    </g>
</svg>
